<svg xmlns="http://www.w3.org/2000/svg" width="402" height="108">
  <defs>
    <clipPath clipPathUnits="userSpaceOnUse" id="cp1">
      <path d="M0 0h402v108H0z"/>
    </clipPath>
  </defs>
  <style>
    .shp0{fill:#274a62}
  </style>
  <g id="Page 1" clip-path="url(#cp1)">
    <path id="Path 1" fill-rule="evenodd" class="shp0" d="M46.23.68c5.84-.4 11.23.67 15.38 1.81 2.15.6 3.94 1.71 5.81 2.76 1.85 1.04 3.65 2.14 5.37 3.19 1.77 1.09 3.18 2.59 4.86 3.78 1.68 1.18 3.43 2.23 5.08 3.48 3.46 2.6 6.03 5.24 8.35 8.78 2.12 3.25 4.26 7.37 5.8 11.39 1.62 4.23 1.63 10.09 1.02 15.24-.64 5.35-2.15 8.99-4.5 12.7-1.26 1.99-2.25 3.43-2.69 5.87-.41 2.31-.69 4.53-1.59 6.97-3.17 8.57-9.15 13.87-16.98 17.34-4.23 1.88-8.23 3.03-13.86 3.34-2.78.16-5.64-.15-7.84-.58-2.24-.44-4.36-1.3-6.9-1.67-2.91-.42-5.58-.04-8.19 0-2.75.05-4.93-.52-7.19-1.23C17.77 90.58 9.69 83.24 5.74 73.38c-.8-1.99-1.8-4.15-2.25-6.31-.09-.4-.16-.69-.15-1.3.03-1.26.62-2.09.51-3.27-.14-1.5-1.01-2.82-1.45-4.21-.45-1.4-.82-2.9-1.16-4.43-.69-3.04-1.5-6.33-1.16-9.94.28-3.04 1.3-6.07 2.17-9.06.87-2.98 1.88-5.56 3.42-7.84 1.44-2.14 3.42-4.15 5.29-5.95 3.66-3.51 8.89-6.18 12.99-9.5 1.49-1.21 2.83-2.75 4.07-4.36.42-.56.75-1.23 1.23-1.52 1.07-.65 2.66-1.03 3.99-1.53 2.7-1 5.04-2.02 8.13-2.75 1.5-.36 3.16-.61 4.86-.73zM34.26 6.2c-3.19 1.14-5.06 3.15-7.55 5.29-3.37 2.9-7.11 5.84-10.89 8.42-1.34.92-2.85 1.58-3.84 2.61-.75.78-1.36 2.08-1.82 2.98-2.75 5.47-5.67 10.58-7.03 17.26-.6 2.92-.63 5.78-.15 8.71.45 2.73.82 5.43 1.74 7.91.48 1.3.6 2.59.87 3.99.26 1.28.76 2.52 1.24 3.63 1.91 4.46 4.81 8.13 7.91 11.54 2.91 3.2 6.65 6.15 10.45 8.92 3.88 2.85 8.2 4.93 14.73 4.43 3.15-.24 5.66.59 8.41 1.09 2.7.49 5.58.93 8.86.43 2.71-.41 5.1-1.35 7.47-2.25 4.56-1.72 9.22-3.96 12.7-6.67 1.83-1.43 3.3-3.12 4.86-4.86 1.56-1.73 3.08-3.36 4.36-5.37 1.23-1.95 1.54-4.77 2.32-7.41.77-2.59 1.94-4.43 3.12-6.53 1.19-2.11 2.1-4.31 2.25-7.47.14-3.06-.13-6.35-.51-9.22-.39-2.92-1.3-5.08-2.32-7.4-.58-1.33-.71-2.66-.87-3.91-.54-4.28-2.58-7.29-4.43-10.16-1.31-2.04-2.49-4.03-4.35-5.37-5.68-4.1-10.88-8.48-18.58-10.59-4.93-1.36-11.43-2.05-17.71-1.75-4.44.22-8.2.65-11.24 1.75z"/>
    <path id="Path 2" fill-rule="evenodd" class="shp0" d="M80.63 41.89c1.66-.49 2.89-2.04 4.93-2.39.81.73.75 2.01.8 3.19.82 20.49-8.93 30.64-22.79 36.36.52 1.09 2.08 1.68 2.54 2.75.78 1.79-1.04 2.31-2.54 2.91-6.71 2.66-17.82 3.31-25.39 1.08-7.46-2.19-13.06-6.31-18-11.24-.64-.64-1.74-1.87-1.16-2.69.41-.58 1.96-.16 2.9-.29-2.16-2.91-4.76-5.8-7.04-9-2.32-3.26-4.14-7.04-3.85-12.33.13-2.22.8-4.05 1.82-5.52.51-.74 1.15-1.34 1.6-2.1.78-1.34 1.31-2.81 2.25-4.14-2.02-.67-3.2 1.3-4.72.44-.48-1 .3-1.84.72-2.61 1.28-2.3 2.13-5.02 3.7-7.04 2.06-2.63 4.89-4.75 7.84-6.46 6.04-3.48 13.76-5.58 23.44-5.22.08-1.06-1.59-2-1.01-3.34.31-.74 2.05-.74 3.12-.87 2.12-.26 4.82.26 6.82.65C70.79 16.79 79 27.25 80.63 41.89zM49.86 20.13c-.7.82-3.78.76-5.37 1.01-1.87.3-3.17 1.18-4.72 1.67-1.68.54-3.51.78-5.08 1.31-6.36 2.13-10.42 6.84-15.75 9.8-1.05.58-1.99 1.23-2.83 1.95-.25.22-.73.53-.58.73 1.34.26 2.87-.08 3.63-.37 1.33 1.24.03 2.96-.36 4.35-1.34 4.76-1.28 11.26.07 16.33 1.46 5.47 3.98 10.22 7.48 13.72.57.57 1.49 1.06 1.38 1.67-.25 1.3-3.79.13-4.79.36 3.15 4.85 9.9 6.74 16.98 7.98 5.1.9 11.1 1.65 17.41 1.45 1.19-.03 5.26-.02 5.52-.79.3-.92-2.37-2.14-2.32-2.91 2.42-2.52 5.23-4.51 7.69-6.96 6.04-6.05 10.64-14.09 13.5-23.15.56-1.8 1.31-3.62 1.59-5.59-1.54-.27-2.06 2.32-3.77 1.89-.45-.12-.99-1.42-1.38-2.25-1.25-2.68-2.53-4.89-3.92-7.11-1.91-3.07-3.83-6.22-6.02-8.71-4.78-5.42-10.96-8.7-18.87-10.66.23 1.21 1.56 3.03.51 4.28zm15.46 9.79c1.32-.29 3.21.29 4.06.8.95.58 2.32 2.04 2.39 3.41.07 1.17-.83 3.43-1.66 3.92-.68.38-1.98.47-2.91.14-1.03-.37-1.66-1.41-2.61-2.03-.61-.39-1.99-.75-2.18-1.59-.24-1.08.76-2.87 1.24-3.48.37-.48.99-1.01 1.67-1.17zm-38.47 1.89c1.43-.05 3.41 1.76 3.42 3.27 0 1.28-1.32 2.06-1.96 2.97-.82 1.16-1.26 2.86-2.62 3.26-1.14.34-2.65-.18-3.19-.94-.75-1.07-.8-4.71-.22-6.09.57-1.34 2.5-2.39 4.57-2.47z"/>
    <path id="Path 3" fill-rule="evenodd" class="shp0" d="M60.67 32.39c1.03 1.13.96 4.08-.36 4.79.97 1.4 2.36 3.09 2.54 5.36.22 2.9-1.02 5.62-3.56 6.32.56.89 1.43 1.57 2.03 2.54.59.93 1.08 2.15 1.09 3.63.04 4.08-2.89 6.96-6.75 6.96-2.21.01-3.95-.72-5.51-1.74-2.07 1.66-4.18 2.77-7.55 2.54-4.35-.29-7.46-3.47-6.89-9 .2-1.98 1.36-3.4 2.54-4.42.08-.08.79-.59.8-.66 0-.07-.75-.98-.87-1.16-.84-1.16-1.65-2.53-1.67-4.43-.02-1.96.51-4.03 1.59-5.15 1.24-1.28 3.39-2.28 5.59-2.31 2.41-.04 3.89 1.04 5.59 2.02 2.28-1.04 4.64-2.83 7.91-2.1.36.08.87.33 1.16.29 1.92-.24.01-3.94 2.32-3.48zm-2.76 13.06c1.83-2.16 1.55-6.41-2.32-5.88-2.95.4-5.24 5.04-4.06 8.49 2.52-.08 5.02-1 6.38-2.61zm-14.22-5.01c-1.44-.15-2.11.62-2.25 1.67-.54 4.07 2.96 6.94 7.26 6.31.08-3.9-1.52-7.61-5.01-7.98zm7.4 9.51c.05 2.9-.26 5.64 1.09 7.25.72.86 2.01 1.35 2.98 1.31 2.02-.09 3.2-2.42 2.68-4.65-.37-1.62-2.29-3.71-3.99-4.06-.77-.16-1.49-.03-2.61-.07-.1.02-.09.16-.15.22zm-11.25 3.77c-.49 1.7.85 3.76 1.75 4.21 1.78.88 4.23-.39 5.29-1.45 1.39-1.39 1.67-3.54 1.6-5.95-3.72-.23-7.84.45-8.64 3.19zm15.82-12.77c1.92-.31 1.92 1.98 1.16 3.26-.53.92-1.33 1.77-2.03 1.89-2.67.45-1.7-2.93-.87-3.99.4-.5.99-1.04 1.74-1.16zm-11.68 1.09c1.43-.26 4.04 1.92 3.7 3.7-.08.42-.54.98-.94 1.09-1.45.37-4.68-2.16-3.78-4.14.18-.38.55-.57 1.02-.65zm9.43 9.5c1.69-.44 4.7 4.4 2.25 5.16-.88.27-2.62-.87-3.04-1.89-.51-1.21-.11-3.03.79-3.27zm-8.2.51c.94-.09 2.06.01 2.18 1.02.11.93-.81 1.67-1.23 2.03-.64.53-1.35.98-2.11 1.09-1.41.2-2.62-.47-2.46-1.82.17-1.56 1.97-2.16 3.62-2.32zm18 13.28c.59-1.76 1.19-3.43 3.41-3.41 2.53.03 3.58 2.59 3.2 5.15-.4 2.62-3.98 5-6.83 4.21-2.45-.68-3.47-5.44.22-5.95zM30.7 64.1c1.53-.19 2.05 1.51 3.19 2.54 1.04.92 2.53 1.59 2.62 2.9.08 1.24-1.26 2.84-2.11 3.05-1.67.41-4.86-.36-5.66-1.74-1.35-2.35-.58-6.45 1.96-6.75zM57.26 108h-4.57c-2.52-.49-5.32-1.22-7.98-1.89-2.62-.66-5.2-1.22-7.62-2.17-2.23-.88-4.29-2.12-6.46-3.34-2.53-1.42-5.82-2.89-6.82-5.66.59.04 1.28-.33 1.81-.15.72.25 1.05 1.4 1.74 1.74.39.2.99.28 1.45.44.47.16.91.35 1.38.58 6.07 2.91 13.52 4.76 21.7 5.37 8.31.62 16.99-1.4 23.29-3.48 1.03-.34 2.13-.49 3.05-.87 1.66-.69 2.34-2.4 4.5-2.25.01 2.15-1.94 2.37-3.19 3.26-.36.26-.61.67-.94.95-.35.29-.73.53-1.09.79-2.23 1.6-4.82 2.86-7.55 4-1.82.75-3.81 1.26-5.88 1.81-2.11.56-4.42.79-6.82.87zm68.2-94.43c.34.02.68.06 1.02.06h29.04v18.38c-.75 0-1.51.05-2.27-.03-.16-.02-.38-.48-.41-.76-.24-2.72-.71-5.39-1.78-7.92-1.58-3.73-4.2-6.24-8.33-6.89-.83-.13-1.69-.14-2.59-.21v31.94c2.52-.25 4.25-1.53 5.29-3.75.99-2.11 1.3-4.38 1.53-6.66.1-.88.15-1.76.22-2.7h2.62V63.8h-2.53c-.21-1.94-.37-3.84-.66-5.73-.3-1.94-.88-3.8-2.14-5.36-1.09-1.36-2.53-1.99-4.32-1.96v33.67c1.59.12 3.15-.13 4.67-.61 4.01-1.29 6.38-4.23 7.59-8.05.91-2.88 1.38-5.89 2.07-8.96h2.46c-.27 6.72-.54 13.43-.81 20.24h-30.67v-2.58h3.58V16.15h-3.58v-2.58zm267.66 50.55v-.85c0-14.39 0-28.79-.01-43.18 0-.77-.05-1.55-.14-2.31-.1-.77-.54-1.25-1.34-1.33-.91-.1-1.82-.19-2.79-.29v-2.48h11.56v2.53c-.75.04-1.49.06-2.23.12-1.44.13-1.92.61-2.01 2.04-.04.69-.04 1.38-.04 2.07V87.04c-1.4 0-2.74.01-4.07-.01-1-.01-2.23.29-2.92-.19-.64-.45-.71-1.73-1.01-2.65-5.87-18.02-11.73-36.04-17.59-54.06-.07-.21-.14-.42-.35-.63v.79c0 16.86 0 33.72.01 50.58 0 .57.02 1.15.11 1.71.22 1.34.68 1.75 2.05 1.85.65.05 1.31.01 2.04.01v2.55h-11.48v-2.46c.93-.07 1.81-.11 2.69-.21.9-.1 1.36-.69 1.47-1.54.09-.66.16-1.32.16-1.97.01-20.3.01-40.6 0-60.9 0-.55-.03-1.09-.11-1.63-.2-1.52-.55-1.84-2.09-1.95-.68-.05-1.36-.08-2.11-.12v-2.53c.27-.01.54-.05.81-.05 4.16 0 8.31.01 12.47-.02.63 0 .88.21 1.06.8 5.14 16.33 10.29 32.66 15.44 48.99.08.24.15.48.23.72h.19zm-106.65-4.29c-1.68 5.1-3.38 10.2-5.05 15.3a359.5 359.5 0 00-2.44 7.68c-.36 1.16-.14 1.43 1.05 1.56.62.07 1.25.08 1.92.13v2.48h-11.12v-2.46c.66-.06 1.34-.13 2.02-.18 1.46-.1 2.49-.89 3.08-2.15.68-1.48 1.31-2.99 1.82-4.53 2.45-7.29 4.85-14.6 7.24-21.91.13-.42.15-.96.02-1.39-3.64-12.49-7.32-24.96-10.97-37.44-.16-.55-.39-.74-.94-.71-.74.05-1.49.01-2.29.01V13.7h17.7v2.5h-3.17c2.22 7.6 4.41 15.07 6.67 22.76.94-2.88 1.81-5.54 2.69-8.2 1.27-3.85 2.54-7.71 3.81-11.56.08-.25.16-.49.24-.74.5-1.76.28-2.07-1.55-2.17-.54-.03-1.07-.06-1.65-.1v-2.5h11.8v2.46c-.81.11-1.63.2-2.44.34-1.33.22-2.37.91-2.98 2.1-.58 1.14-1.13 2.32-1.53 3.53-2.3 6.89-4.55 13.79-6.8 20.7-.13.4-.16.91-.04 1.31 3.84 13.2 7.72 26.39 11.56 39.59.17.57.39.8.99.75.76-.05 1.53-.01 2.35-.01v2.52h-17.67v-2.49h3.15c-2.44-8.3-4.86-16.48-7.27-24.65-.07 0-.13-.01-.2-.01z"/>
    <path id="Path 4" fill-rule="evenodd" class="shp0" d="M332.8 13.66h4.9c4.11 23.57 8.23 47.11 12.36 70.77h3.66v2.55h-18.49v-2.51h3.64c-.97-5.99-1.93-11.87-2.89-17.82-.28-.02-.53-.06-.77-.06-2.76 0-5.51.01-8.26-.01-.57 0-.84.09-.95.75-.84 5.14-1.74 10.26-2.62 15.4-.16.96.11 1.38 1.1 1.58.72.14 1.46.15 2.24.23v2.44h-11.28v-2.53c.55 0 1.09.02 1.62 0 1.78-.1 2.67-.67 3.15-2.38.5-1.79.85-3.62 1.19-5.44 1.49-8.13 2.95-16.27 4.42-24.4 1.46-8.08 2.91-16.16 4.37-24.23.86-4.76 1.73-9.51 2.61-14.34zm2.73 50.31c-1.4-8.64-2.78-17.21-4.17-25.78h-.14c-1.47 8.58-2.95 17.16-4.43 25.78h8.74zm-132.3 2.8h2.66l-.84 20.21h-30.29v-2.51h3.53V16.26h-3.53v-2.55h18.12v2.49h-3.5v68.37c1.3-.19 2.61-.26 3.85-.57 3.83-.95 6.13-3.61 7.61-7.1 1.25-2.92 1.85-6 2.24-9.13.04-.31.1-.62.15-1zm16.49-50.54h-3.54v-2.54h18.16v2.53h-3.54v68.2h3.5v2.56h-18.12v-2.49h3.54V16.23zm44.75 36.3c0 4.88-3.95 8.83-8.83 8.83-4.87 0-8.83-3.95-8.83-8.83 0-4.87 3.96-8.83 8.83-8.83 4.88 0 8.83 3.96 8.83 8.83z"/>
  </g>
</svg>
